<svg id="Layer_1" height="512" viewBox="0 0 128 128" width="512" xmlns="http://www.w3.org/2000/svg" data-name="Layer 1"><path d="m117.75 54.207h-107.5v7.165h47.853l5.647 8.792h4.01l-3.647-8.792h53.637z" fill="#ea7520"/><path d="m85.329 21.929h-38.121l-26.75 24.479s3.75 7.8 15.75 7.8h58.1a10.067 10.067 0 0 1 10.067 10.067v33.4h7.75v-48.95a26.8 26.8 0 0 0 -26.796-26.796z" fill="#b2e034"/><path d="m15.875 46.408a31.333 31.333 0 0 1 31.333-31.333v31.333z" fill="#ffce12"/><circle cx="42.646" cy="30.742" fill="#ea7520" r="8.813"/><path d="m42.646 21.929c-.253 0-.5.017-.749.038a6.693 6.693 0 0 0 9.537 9.264c.009-.163.025-.324.025-.489a8.813 8.813 0 0 0 -8.813-8.813z" fill="#fff"/><path d="m51.75 60.34a3 3 0 0 1 -2.145-5.1l4.312-4.41-.993-1.9a3 3 0 1 1 5.319-2.775l2 3.833a3 3 0 0 1 -.515 3.485l-5.828 5.964a2.991 2.991 0 0 1 -2.15.903z" fill="#93d300"/><path d="m86.219 60.34a3 3 0 0 1 -2.145-5.1l4.312-4.41-.993-1.9a3 3 0 0 1 5.319-2.775l2 3.833a3 3 0 0 1 -.515 3.485l-5.833 5.966a2.991 2.991 0 0 1 -2.145.901z" fill="#93d300"/><path d="m81.25 24.833h-14.917a1.75 1.75 0 0 0 0 3.5h14.917a1.75 1.75 0 0 0 0-3.5z" fill="#fff"/><path d="m61.208 24.833h-.624a1.75 1.75 0 1 0 0 3.5h.624a1.75 1.75 0 0 0 0-3.5z" fill="#fff"/><circle cx="96.875" cy="97.675" fill="#ffce12" r="15.25"/><circle cx="101.036" cy="100.483" fill="#ff9d00" r="10.198"/><circle cx="101.75" cy="95.384" fill="#ea7520" r="5.099"/><g fill="#242c43"><path d="m27.458 59.622h-.458a1.75 1.75 0 0 0 0 3.5h.458a1.75 1.75 0 0 0 0-3.5z"/><path d="m20.938 59.622h-10.688a1.75 1.75 0 0 0 0 3.5h10.688a1.75 1.75 0 0 0 0-3.5z"/><path d="m117.75 59.622h-3.875v-3.664h3.875a1.75 1.75 0 0 0 0-3.5h-3.875v-3.733a28.578 28.578 0 0 0 -28.545-28.546h-36.372v-5.1a1.75 1.75 0 0 0 -1.75-1.75 33.121 33.121 0 0 0 -33.083 33.079 1.75 1.75 0 0 0 1.75 1.75h3.592a16.192 16.192 0 0 0 4.316 4.3h-13.533a1.75 1.75 0 0 0 0 3.5h36.977a4.5 4.5 0 0 0 .381 3.664h-13.983a1.75 1.75 0 0 0 0 3.5h23.521l5.131 7.988a1.751 1.751 0 0 0 1.473.8h4.01a1.75 1.75 0 0 0 1.616-2.42l-2.643-6.372h30.142a1.75 1.75 0 0 0 0-3.5h-6.243l3.583-3.664h.094a8.326 8.326 0 0 1 8.317 8.316v17.43a16.886 16.886 0 0 0 -14.412 1.347 1.75 1.75 0 0 0 1.786 3.008 13.491 13.491 0 0 1 18.162 19.008 1.714 1.714 0 0 0 -.118.142 8.444 8.444 0 1 1 -13.1-10.558 6.848 6.848 0 1 0 6.808-6.112c-.16 0-.318.013-.475.024a1.727 1.727 0 0 0 -.239-.024 11.94 11.94 0 0 0 -5.438 22.576 13.509 13.509 0 0 1 -11.814-16.756 1.75 1.75 0 0 0 -3.394-.858 17 17 0 1 0 33.482 4.178v-34.553h3.875a1.75 1.75 0 0 0 0-3.5zm-12.65 35.762a3.349 3.349 0 1 1 -3.349-3.349 3.353 3.353 0 0 1 3.349 3.349zm-55.413-65.072a4.876 4.876 0 0 1 -2.478.672 4.954 4.954 0 0 1 -4.948-4.948 4.874 4.874 0 0 1 .6-2.346 7.062 7.062 0 0 1 6.826 6.622zm-2.478 4.172a8.4 8.4 0 0 0 1.5-.138 7.056 7.056 0 1 1 -9.847-9.557 8.393 8.393 0 0 0 8.347 9.7zm58.917 48.948v-19.158a11.834 11.834 0 0 0 -9.512-11.587 4.733 4.733 0 0 0 -.349-3.51l-2-3.833a1.75 1.75 0 0 0 -3.1 1.619l2 3.833a1.247 1.247 0 0 1 -.215 1.452l-5.833 5.966a1.28 1.28 0 0 1 -1.768.02 1.249 1.249 0 0 1 -.02-1.767l4.312-4.41a1.751 1.751 0 0 0 .3-2.033l-.993-1.9a1.75 1.75 0 0 0 -3.1 1.619l.406.778-1.9 1.941h-18.354a1.75 1.75 0 0 0 0 3.5h15.7a4.5 4.5 0 0 0 .381 3.664h-17.968a1.75 1.75 0 0 0 -1.616 2.42l2.643 6.372h-.434l-5.131-7.988a1.75 1.75 0 0 0 -1.472-.8h-1.94l4.817-4.927a4.739 4.739 0 0 0 .815-5.518l-2-3.833a1.75 1.75 0 0 0 -3.1 1.619l2 3.833a1.247 1.247 0 0 1 -.215 1.452l-5.833 5.966a1.28 1.28 0 0 1 -1.768.02 1.249 1.249 0 0 1 -.02-1.767l4.312-4.41a1.751 1.751 0 0 0 .3-2.033l-.993-1.9a1.75 1.75 0 0 0 -3.1 1.619l.406.778-1.9 1.941h-13.676c-6.4 0-10.162-2.355-12.188-4.3h23.188a1.75 1.75 0 0 0 0-3.5h-29.532a29.627 29.627 0 0 1 27.782-27.794v3.7a10.6 10.6 0 1 0 5.019 3.108h34.853a25.074 25.074 0 0 1 25.045 25.045v38.66a17.112 17.112 0 0 0 -4.25-3.957z"/><path d="m83.694 89.8a1.75 1.75 0 0 0 2.454-.325q.136-.177.278-.351a1.75 1.75 0 1 0 -2.706-2.22c-.119.146-.236.292-.35.441a1.75 1.75 0 0 0 .324 2.455z"/></g></svg>